<?xml version="1.0" encoding="UTF-8" standalone="no"?>
<!DOCTYPE svg PUBLIC "-//W3C//DTD SVG 1.1//EN"
 "http://www.w3.org/Graphics/SVG/1.1/DTD/svg11.dtd">
<!-- Generated by graphviz version 5.0.0 (20220707.1540)
 -->
<!-- Title: dependencies Pages: 1 -->
<svg width="618pt" height="174pt"
 viewBox="0.00 0.00 618.00 173.80" xmlns="http://www.w3.org/2000/svg" xmlns:xlink="http://www.w3.org/1999/xlink">
<g id="graph0" class="graph" transform="scale(1 1) rotate(0) translate(4 169.8)">
<title>dependencies</title>
<polygon fill="white" stroke="transparent" points="-4,4 -4,-169.8 614,-169.8 614,4 -4,4"/>
<text text-anchor="middle" x="305" y="-8.2" font-family="sans-serif" font-size="14.00">dependencies</text>
<g id="clust1" class="cluster">
<title>cluster_AuthModule</title>
<polygon fill="none" stroke="black" stroke-dasharray="1,5" points="8,-32.8 8,-157.8 602,-157.8 602,-32.8 8,-32.8"/>
</g>
<g id="clust2" class="cluster">
<title>cluster_AuthModule_declarations</title>
<polygon fill="none" stroke="black" points="172,-40.8 172,-92.8 594,-92.8 594,-40.8 172,-40.8"/>
</g>
<g id="clust6" class="cluster">
<title>cluster_AuthModule_imports</title>
<polygon fill="none" stroke="black" points="16,-40.8 16,-92.8 164,-92.8 164,-40.8 16,-40.8"/>
</g>
<!-- AulayoutComponent -->
<g id="node1" class="node">
<title>AulayoutComponent</title>
<polygon fill="#ffffb3" stroke="black" points="585.94,-84.8 452.06,-84.8 452.06,-48.8 585.94,-48.8 585.94,-84.8"/>
<text text-anchor="middle" x="519" y="-62.6" font-family="Times,serif" font-size="14.00">AulayoutComponent</text>
</g>
<!-- AuthModule -->
<g id="node4" class="node">
<title>AuthModule</title>
<polygon fill="#8dd3c7" stroke="black" points="352.55,-149.8 349.55,-153.8 328.55,-153.8 325.55,-149.8 265.45,-149.8 265.45,-113.8 352.55,-113.8 352.55,-149.8"/>
<text text-anchor="middle" x="309" y="-127.6" font-family="Times,serif" font-size="14.00">AuthModule</text>
</g>
<!-- AulayoutComponent&#45;&gt;AuthModule -->
<g id="edge1" class="edge">
<title>AulayoutComponent&#45;&gt;AuthModule</title>
<path fill="none" stroke="black" d="M519,-84.91C519,-104.14 519,-131.8 519,-131.8 519,-131.8 362.77,-131.8 362.77,-131.8"/>
<polygon fill="black" stroke="black" points="362.77,-128.3 352.77,-131.8 362.77,-135.3 362.77,-128.3"/>
</g>
<!-- LoginComponent -->
<g id="node2" class="node">
<title>LoginComponent</title>
<polygon fill="#ffffb3" stroke="black" points="434.27,-84.8 319.73,-84.8 319.73,-48.8 434.27,-48.8 434.27,-84.8"/>
<text text-anchor="middle" x="377" y="-62.6" font-family="Times,serif" font-size="14.00">LoginComponent</text>
</g>
<!-- LoginComponent&#45;&gt;AuthModule -->
<g id="edge2" class="edge">
<title>LoginComponent&#45;&gt;AuthModule</title>
<path fill="none" stroke="black" d="M336.19,-84.91C336.19,-84.91 336.19,-103.79 336.19,-103.79"/>
<polygon fill="black" stroke="black" points="332.69,-103.79 336.19,-113.79 339.69,-103.79 332.69,-103.79"/>
</g>
<!-- SignupComponent -->
<g id="node3" class="node">
<title>SignupComponent</title>
<polygon fill="#ffffb3" stroke="black" points="301.51,-84.8 180.49,-84.8 180.49,-48.8 301.51,-48.8 301.51,-84.8"/>
<text text-anchor="middle" x="241" y="-62.6" font-family="Times,serif" font-size="14.00">SignupComponent</text>
</g>
<!-- SignupComponent&#45;&gt;AuthModule -->
<g id="edge3" class="edge">
<title>SignupComponent&#45;&gt;AuthModule</title>
<path fill="none" stroke="black" d="M283.36,-84.91C283.36,-84.91 283.36,-103.79 283.36,-103.79"/>
<polygon fill="black" stroke="black" points="279.86,-103.79 283.36,-113.79 286.86,-103.79 279.86,-103.79"/>
</g>
<!-- AuthRoutingModule -->
<g id="node5" class="node">
<title>AuthRoutingModule</title>
<polygon fill="#8dd3c7" stroke="black" points="156.17,-84.8 153.17,-88.8 132.17,-88.8 129.17,-84.8 23.83,-84.8 23.83,-48.8 156.17,-48.8 156.17,-84.8"/>
<text text-anchor="middle" x="90" y="-62.6" font-family="Times,serif" font-size="14.00">AuthRoutingModule</text>
</g>
<!-- AuthRoutingModule&#45;&gt;AuthModule -->
<g id="edge4" class="edge">
<title>AuthRoutingModule&#45;&gt;AuthModule</title>
<path fill="none" stroke="black" d="M90,-84.91C90,-104.14 90,-131.8 90,-131.8 90,-131.8 255.21,-131.8 255.21,-131.8"/>
<polygon fill="black" stroke="black" points="255.21,-135.3 265.21,-131.8 255.21,-128.3 255.21,-135.3"/>
</g>
</g>
</svg>
