<?xml version="1.0" encoding="UTF-8" standalone="no"?>
<!DOCTYPE svg PUBLIC "-//W3C//DTD SVG 1.1//EN"
 "http://www.w3.org/Graphics/SVG/1.1/DTD/svg11.dtd">
<!-- Generated by graphviz version 5.0.0 (20220707.1540)
 -->
<!-- Title: dependencies Pages: 1 -->
<svg width="1213pt" height="174pt"
 viewBox="0.00 0.00 1213.00 173.80" xmlns="http://www.w3.org/2000/svg" xmlns:xlink="http://www.w3.org/1999/xlink">
<g id="graph0" class="graph" transform="scale(1 1) rotate(0) translate(4 169.8)">
<title>dependencies</title>
<polygon fill="white" stroke="transparent" points="-4,4 -4,-169.8 1209,-169.8 1209,4 -4,4"/>
<text text-anchor="middle" x="602.5" y="-8.2" font-family="sans-serif" font-size="14.00">dependencies</text>
<g id="clust1" class="cluster">
<title>cluster_AdminModule</title>
<polygon fill="none" stroke="black" stroke-dasharray="1,5" points="8,-32.8 8,-157.8 1197,-157.8 1197,-32.8 8,-32.8"/>
</g>
<g id="clust10" class="cluster">
<title>cluster_AdminModule_imports</title>
<polygon fill="none" stroke="black" points="1029,-40.8 1029,-92.8 1189,-92.8 1189,-40.8 1029,-40.8"/>
</g>
<g id="clust2" class="cluster">
<title>cluster_AdminModule_declarations</title>
<polygon fill="none" stroke="black" points="16,-40.8 16,-92.8 1021,-92.8 1021,-40.8 16,-40.8"/>
</g>
<!-- AlayoutComponent -->
<g id="node1" class="node">
<title>AlayoutComponent</title>
<polygon fill="#ffffb3" stroke="black" points="1013.44,-84.8 886.56,-84.8 886.56,-48.8 1013.44,-48.8 1013.44,-84.8"/>
<text text-anchor="middle" x="950" y="-62.6" font-family="Times,serif" font-size="14.00">AlayoutComponent</text>
</g>
<!-- AdminModule -->
<g id="node8" class="node">
<title>AdminModule</title>
<polygon fill="#8dd3c7" stroke="black" points="639.44,-149.8 636.44,-153.8 615.44,-153.8 612.44,-149.8 540.56,-149.8 540.56,-113.8 639.44,-113.8 639.44,-149.8"/>
<text text-anchor="middle" x="590" y="-127.6" font-family="Times,serif" font-size="14.00">AdminModule</text>
</g>
<!-- AlayoutComponent&#45;&gt;AdminModule -->
<g id="edge1" class="edge">
<title>AlayoutComponent&#45;&gt;AdminModule</title>
<path fill="none" stroke="black" d="M950,-84.91C950,-104.14 950,-131.8 950,-131.8 950,-131.8 649.3,-131.8 649.3,-131.8"/>
<polygon fill="black" stroke="black" points="649.3,-128.3 639.3,-131.8 649.3,-135.3 649.3,-128.3"/>
</g>
<!-- DashboardComponent -->
<g id="node2" class="node">
<title>DashboardComponent</title>
<polygon fill="#ffffb3" stroke="black" points="868.98,-84.8 727.02,-84.8 727.02,-48.8 868.98,-48.8 868.98,-84.8"/>
<text text-anchor="middle" x="798" y="-62.6" font-family="Times,serif" font-size="14.00">DashboardComponent</text>
</g>
<!-- DashboardComponent&#45;&gt;AdminModule -->
<g id="edge2" class="edge">
<title>DashboardComponent&#45;&gt;AdminModule</title>
<path fill="none" stroke="black" d="M798,-84.83C798,-101.2 798,-122.8 798,-122.8 798,-122.8 649.29,-122.8 649.29,-122.8"/>
<polygon fill="black" stroke="black" points="649.29,-119.3 639.29,-122.8 649.29,-126.3 649.29,-119.3"/>
</g>
<!-- EtatComponent -->
<g id="node3" class="node">
<title>EtatComponent</title>
<polygon fill="#ffffb3" stroke="black" points="708.88,-84.8 605.12,-84.8 605.12,-48.8 708.88,-48.8 708.88,-84.8"/>
<text text-anchor="middle" x="657" y="-62.6" font-family="Times,serif" font-size="14.00">EtatComponent</text>
</g>
<!-- EtatComponent&#45;&gt;AdminModule -->
<g id="edge3" class="edge">
<title>EtatComponent&#45;&gt;AdminModule</title>
<path fill="none" stroke="black" d="M622.14,-84.91C622.14,-84.91 622.14,-103.79 622.14,-103.79"/>
<polygon fill="black" stroke="black" points="618.64,-103.79 622.14,-113.79 625.64,-103.79 618.64,-103.79"/>
</g>
<!-- LougoutComponent -->
<g id="node4" class="node">
<title>LougoutComponent</title>
<polygon fill="#ffffb3" stroke="black" points="587.27,-84.8 458.73,-84.8 458.73,-48.8 587.27,-48.8 587.27,-84.8"/>
<text text-anchor="middle" x="523" y="-62.6" font-family="Times,serif" font-size="14.00">LougoutComponent</text>
</g>
<!-- LougoutComponent&#45;&gt;AdminModule -->
<g id="edge4" class="edge">
<title>LougoutComponent&#45;&gt;AdminModule</title>
<path fill="none" stroke="black" d="M564.08,-84.91C564.08,-84.91 564.08,-103.79 564.08,-103.79"/>
<polygon fill="black" stroke="black" points="560.58,-103.79 564.08,-113.79 567.58,-103.79 560.58,-103.79"/>
</g>
<!-- ProfileComponent -->
<g id="node5" class="node">
<title>ProfileComponent</title>
<polygon fill="#ffffb3" stroke="black" points="440.94,-84.8 321.06,-84.8 321.06,-48.8 440.94,-48.8 440.94,-84.8"/>
<text text-anchor="middle" x="381" y="-62.6" font-family="Times,serif" font-size="14.00">ProfileComponent</text>
</g>
<!-- ProfileComponent&#45;&gt;AdminModule -->
<g id="edge5" class="edge">
<title>ProfileComponent&#45;&gt;AdminModule</title>
<path fill="none" stroke="black" d="M381,-84.83C381,-101.2 381,-122.8 381,-122.8 381,-122.8 530.73,-122.8 530.73,-122.8"/>
<polygon fill="black" stroke="black" points="530.73,-126.3 540.73,-122.8 530.73,-119.3 530.73,-126.3"/>
</g>
<!-- SidemenuComponent -->
<g id="node6" class="node">
<title>SidemenuComponent</title>
<polygon fill="#ffffb3" stroke="black" points="303.82,-84.8 166.18,-84.8 166.18,-48.8 303.82,-48.8 303.82,-84.8"/>
<text text-anchor="middle" x="235" y="-62.6" font-family="Times,serif" font-size="14.00">SidemenuComponent</text>
</g>
<!-- SidemenuComponent&#45;&gt;AdminModule -->
<g id="edge6" class="edge">
<title>SidemenuComponent&#45;&gt;AdminModule</title>
<path fill="none" stroke="black" d="M235,-84.91C235,-104.14 235,-131.8 235,-131.8 235,-131.8 530.64,-131.8 530.64,-131.8"/>
<polygon fill="black" stroke="black" points="530.64,-135.3 540.64,-131.8 530.64,-128.3 530.64,-135.3"/>
</g>
<!-- SignoutComponent -->
<g id="node7" class="node">
<title>SignoutComponent</title>
<polygon fill="#ffffb3" stroke="black" points="148.4,-84.8 23.6,-84.8 23.6,-48.8 148.4,-48.8 148.4,-84.8"/>
<text text-anchor="middle" x="86" y="-62.6" font-family="Times,serif" font-size="14.00">SignoutComponent</text>
</g>
<!-- SignoutComponent&#45;&gt;AdminModule -->
<g id="edge7" class="edge">
<title>SignoutComponent&#45;&gt;AdminModule</title>
<path fill="none" stroke="black" d="M86,-85.09C86,-107.01 86,-140.8 86,-140.8 86,-140.8 530.76,-140.8 530.76,-140.8"/>
<polygon fill="black" stroke="black" points="530.76,-144.3 540.76,-140.8 530.76,-137.3 530.76,-144.3"/>
</g>
<!-- AdminRoutingModule -->
<g id="node9" class="node">
<title>AdminRoutingModule</title>
<polygon fill="#8dd3c7" stroke="black" points="1180.56,-84.8 1177.56,-88.8 1156.56,-88.8 1153.56,-84.8 1037.44,-84.8 1037.44,-48.8 1180.56,-48.8 1180.56,-84.8"/>
<text text-anchor="middle" x="1109" y="-62.6" font-family="Times,serif" font-size="14.00">AdminRoutingModule</text>
</g>
<!-- AdminRoutingModule&#45;&gt;AdminModule -->
<g id="edge8" class="edge">
<title>AdminRoutingModule&#45;&gt;AdminModule</title>
<path fill="none" stroke="black" d="M1109,-85.09C1109,-107.01 1109,-140.8 1109,-140.8 1109,-140.8 649.29,-140.8 649.29,-140.8"/>
<polygon fill="black" stroke="black" points="649.29,-137.3 639.29,-140.8 649.29,-144.3 649.29,-137.3"/>
</g>
</g>
</svg>
