<?xml version="1.0" encoding="UTF-8" standalone="no"?>
<!DOCTYPE svg PUBLIC "-//W3C//DTD SVG 1.1//EN"
 "http://www.w3.org/Graphics/SVG/1.1/DTD/svg11.dtd">
<!-- Generated by graphviz version 5.0.0 (20220707.1540)
 -->
<!-- Title: dependencies Pages: 1 -->
<svg width="1779pt" height="174pt"
 viewBox="0.00 0.00 1779.00 173.80" xmlns="http://www.w3.org/2000/svg" xmlns:xlink="http://www.w3.org/1999/xlink">
<g id="graph0" class="graph" transform="scale(1 1) rotate(0) translate(4 169.8)">
<title>dependencies</title>
<polygon fill="white" stroke="transparent" points="-4,4 -4,-169.8 1775,-169.8 1775,4 -4,4"/>
<text text-anchor="middle" x="885.5" y="-8.2" font-family="sans-serif" font-size="14.00">dependencies</text>
<g id="clust1" class="cluster">
<title>cluster_PublicModule</title>
<polygon fill="none" stroke="black" stroke-dasharray="1,5" points="8,-32.8 8,-157.8 1763,-157.8 1763,-32.8 8,-32.8"/>
</g>
<g id="clust2" class="cluster">
<title>cluster_PublicModule_declarations</title>
<polygon fill="none" stroke="black" points="180,-40.8 180,-92.8 1755,-92.8 1755,-40.8 180,-40.8"/>
</g>
<g id="clust14" class="cluster">
<title>cluster_PublicModule_imports</title>
<polygon fill="none" stroke="black" points="16,-40.8 16,-92.8 172,-92.8 172,-40.8 16,-40.8"/>
</g>
<!-- AboutUsComponent -->
<g id="node1" class="node">
<title>AboutUsComponent</title>
<polygon fill="#ffffb3" stroke="black" points="1746.89,-84.8 1615.11,-84.8 1615.11,-48.8 1746.89,-48.8 1746.89,-84.8"/>
<text text-anchor="middle" x="1681" y="-62.6" font-family="Times,serif" font-size="14.00">AboutUsComponent</text>
</g>
<!-- PublicModule -->
<g id="node12" class="node">
<title>PublicModule</title>
<polygon fill="#8dd3c7" stroke="black" points="954.83,-149.8 951.83,-153.8 930.83,-153.8 927.83,-149.8 859.17,-149.8 859.17,-113.8 954.83,-113.8 954.83,-149.8"/>
<text text-anchor="middle" x="907" y="-127.6" font-family="Times,serif" font-size="14.00">PublicModule</text>
</g>
<!-- AboutUsComponent&#45;&gt;PublicModule -->
<g id="edge1" class="edge">
<title>AboutUsComponent&#45;&gt;PublicModule</title>
<path fill="none" stroke="black" d="M1681,-84.89C1681,-107.93 1681,-144.8 1681,-144.8 1681,-144.8 964.83,-144.8 964.83,-144.8"/>
<polygon fill="black" stroke="black" points="964.83,-141.3 954.83,-144.8 964.83,-148.3 964.83,-141.3"/>
</g>
<!-- ContactComponent -->
<g id="node2" class="node">
<title>ContactComponent</title>
<polygon fill="#ffffb3" stroke="black" points="1597.38,-84.8 1472.62,-84.8 1472.62,-48.8 1597.38,-48.8 1597.38,-84.8"/>
<text text-anchor="middle" x="1535" y="-62.6" font-family="Times,serif" font-size="14.00">ContactComponent</text>
</g>
<!-- ContactComponent&#45;&gt;PublicModule -->
<g id="edge2" class="edge">
<title>ContactComponent&#45;&gt;PublicModule</title>
<path fill="none" stroke="black" d="M1535,-85.08C1535,-106.12 1535,-137.8 1535,-137.8 1535,-137.8 964.72,-137.8 964.72,-137.8"/>
<polygon fill="black" stroke="black" points="964.72,-134.3 954.72,-137.8 964.72,-141.3 964.72,-134.3"/>
</g>
<!-- EquipeComponent -->
<g id="node3" class="node">
<title>EquipeComponent</title>
<polygon fill="#ffffb3" stroke="black" points="1454.49,-84.8 1333.51,-84.8 1333.51,-48.8 1454.49,-48.8 1454.49,-84.8"/>
<text text-anchor="middle" x="1394" y="-62.6" font-family="Times,serif" font-size="14.00">EquipeComponent</text>
</g>
<!-- EquipeComponent&#45;&gt;PublicModule -->
<g id="edge3" class="edge">
<title>EquipeComponent&#45;&gt;PublicModule</title>
<path fill="none" stroke="black" d="M1394,-84.91C1394,-104.14 1394,-131.8 1394,-131.8 1394,-131.8 965.03,-131.8 965.03,-131.8"/>
<polygon fill="black" stroke="black" points="965.03,-128.3 955.03,-131.8 965.03,-135.3 965.03,-128.3"/>
</g>
<!-- HomeComponent -->
<g id="node4" class="node">
<title>HomeComponent</title>
<polygon fill="#ffffb3" stroke="black" points="1315.55,-84.8 1200.45,-84.8 1200.45,-48.8 1315.55,-48.8 1315.55,-84.8"/>
<text text-anchor="middle" x="1258" y="-62.6" font-family="Times,serif" font-size="14.00">HomeComponent</text>
</g>
<!-- HomeComponent&#45;&gt;PublicModule -->
<g id="edge4" class="edge">
<title>HomeComponent&#45;&gt;PublicModule</title>
<path fill="none" stroke="black" d="M1258,-84.82C1258,-102.17 1258,-125.8 1258,-125.8 1258,-125.8 964.7,-125.8 964.7,-125.8"/>
<polygon fill="black" stroke="black" points="964.7,-122.3 954.7,-125.8 964.7,-129.3 964.7,-122.3"/>
</g>
<!-- PfooterComponent -->
<g id="node5" class="node">
<title>PfooterComponent</title>
<polygon fill="#ffffb3" stroke="black" points="1182.05,-84.8 1059.95,-84.8 1059.95,-48.8 1182.05,-48.8 1182.05,-84.8"/>
<text text-anchor="middle" x="1121" y="-62.6" font-family="Times,serif" font-size="14.00">PfooterComponent</text>
</g>
<!-- PfooterComponent&#45;&gt;PublicModule -->
<g id="edge5" class="edge">
<title>PfooterComponent&#45;&gt;PublicModule</title>
<path fill="none" stroke="black" d="M1121,-85.04C1121,-100.37 1121,-119.8 1121,-119.8 1121,-119.8 964.76,-119.8 964.76,-119.8"/>
<polygon fill="black" stroke="black" points="964.76,-116.3 954.76,-119.8 964.76,-123.3 964.76,-116.3"/>
</g>
<!-- PheaderComponent -->
<g id="node6" class="node">
<title>PheaderComponent</title>
<polygon fill="#ffffb3" stroke="black" points="1042.42,-84.8 915.58,-84.8 915.58,-48.8 1042.42,-48.8 1042.42,-84.8"/>
<text text-anchor="middle" x="979" y="-62.6" font-family="Times,serif" font-size="14.00">PheaderComponent</text>
</g>
<!-- PheaderComponent&#45;&gt;PublicModule -->
<g id="edge6" class="edge">
<title>PheaderComponent&#45;&gt;PublicModule</title>
<path fill="none" stroke="black" d="M935.23,-84.91C935.23,-84.91 935.23,-103.79 935.23,-103.79"/>
<polygon fill="black" stroke="black" points="931.73,-103.79 935.23,-113.79 938.73,-103.79 931.73,-103.79"/>
</g>
<!-- PlayoutComponent -->
<g id="node7" class="node">
<title>PlayoutComponent</title>
<polygon fill="#ffffb3" stroke="black" points="898.11,-84.8 773.89,-84.8 773.89,-48.8 898.11,-48.8 898.11,-84.8"/>
<text text-anchor="middle" x="836" y="-62.6" font-family="Times,serif" font-size="14.00">PlayoutComponent</text>
</g>
<!-- PlayoutComponent&#45;&gt;PublicModule -->
<g id="edge7" class="edge">
<title>PlayoutComponent&#45;&gt;PublicModule</title>
<path fill="none" stroke="black" d="M878.69,-84.91C878.69,-84.91 878.69,-103.79 878.69,-103.79"/>
<polygon fill="black" stroke="black" points="875.19,-103.79 878.69,-113.79 882.19,-103.79 875.19,-103.79"/>
</g>
<!-- PrivacyComponent -->
<g id="node8" class="node">
<title>PrivacyComponent</title>
<polygon fill="#ffffb3" stroke="black" points="756.1,-84.8 631.9,-84.8 631.9,-48.8 756.1,-48.8 756.1,-84.8"/>
<text text-anchor="middle" x="694" y="-62.6" font-family="Times,serif" font-size="14.00">PrivacyComponent</text>
</g>
<!-- PrivacyComponent&#45;&gt;PublicModule -->
<g id="edge8" class="edge">
<title>PrivacyComponent&#45;&gt;PublicModule</title>
<path fill="none" stroke="black" d="M694,-85.04C694,-100.37 694,-119.8 694,-119.8 694,-119.8 849.2,-119.8 849.2,-119.8"/>
<polygon fill="black" stroke="black" points="849.2,-123.3 859.2,-119.8 849.2,-116.3 849.2,-123.3"/>
</g>
<!-- ReservationComponent -->
<g id="node9" class="node">
<title>ReservationComponent</title>
<polygon fill="#ffffb3" stroke="black" points="614.2,-84.8 465.8,-84.8 465.8,-48.8 614.2,-48.8 614.2,-84.8"/>
<text text-anchor="middle" x="540" y="-62.6" font-family="Times,serif" font-size="14.00">ReservationComponent</text>
</g>
<!-- ReservationComponent&#45;&gt;PublicModule -->
<g id="edge9" class="edge">
<title>ReservationComponent&#45;&gt;PublicModule</title>
<path fill="none" stroke="black" d="M540,-84.82C540,-102.17 540,-125.8 540,-125.8 540,-125.8 849.02,-125.8 849.02,-125.8"/>
<polygon fill="black" stroke="black" points="849.02,-129.3 859.02,-125.8 849.02,-122.3 849.02,-129.3"/>
</g>
<!-- ServiceComponent -->
<g id="node10" class="node">
<title>ServiceComponent</title>
<polygon fill="#ffffb3" stroke="black" points="447.81,-84.8 324.19,-84.8 324.19,-48.8 447.81,-48.8 447.81,-84.8"/>
<text text-anchor="middle" x="386" y="-62.6" font-family="Times,serif" font-size="14.00">ServiceComponent</text>
</g>
<!-- ServiceComponent&#45;&gt;PublicModule -->
<g id="edge10" class="edge">
<title>ServiceComponent&#45;&gt;PublicModule</title>
<path fill="none" stroke="black" d="M386,-84.91C386,-104.14 386,-131.8 386,-131.8 386,-131.8 848.92,-131.8 848.92,-131.8"/>
<polygon fill="black" stroke="black" points="848.92,-135.3 858.92,-131.8 848.92,-128.3 848.92,-135.3"/>
</g>
<!-- TermeComponent -->
<g id="node11" class="node">
<title>TermeComponent</title>
<polygon fill="#ffffb3" stroke="black" points="305.86,-84.8 188.14,-84.8 188.14,-48.8 305.86,-48.8 305.86,-84.8"/>
<text text-anchor="middle" x="247" y="-62.6" font-family="Times,serif" font-size="14.00">TermeComponent</text>
</g>
<!-- TermeComponent&#45;&gt;PublicModule -->
<g id="edge11" class="edge">
<title>TermeComponent&#45;&gt;PublicModule</title>
<path fill="none" stroke="black" d="M247,-85.08C247,-106.12 247,-137.8 247,-137.8 247,-137.8 849.27,-137.8 849.27,-137.8"/>
<polygon fill="black" stroke="black" points="849.27,-141.3 859.27,-137.8 849.27,-134.3 849.27,-141.3"/>
</g>
<!-- PublicRoutingModule -->
<g id="node13" class="node">
<title>PublicRoutingModule</title>
<polygon fill="#8dd3c7" stroke="black" points="164.45,-84.8 161.45,-88.8 140.45,-88.8 137.45,-84.8 23.55,-84.8 23.55,-48.8 164.45,-48.8 164.45,-84.8"/>
<text text-anchor="middle" x="94" y="-62.6" font-family="Times,serif" font-size="14.00">PublicRoutingModule</text>
</g>
<!-- PublicRoutingModule&#45;&gt;PublicModule -->
<g id="edge12" class="edge">
<title>PublicRoutingModule&#45;&gt;PublicModule</title>
<path fill="none" stroke="black" d="M94,-84.89C94,-107.93 94,-144.8 94,-144.8 94,-144.8 849.18,-144.8 849.18,-144.8"/>
<polygon fill="black" stroke="black" points="849.18,-148.3 859.18,-144.8 849.18,-141.3 849.18,-148.3"/>
</g>
</g>
</svg>
