<?xml version="1.0" encoding="UTF-8" standalone="no"?>
<!DOCTYPE svg PUBLIC "-//W3C//DTD SVG 1.1//EN"
 "http://www.w3.org/Graphics/SVG/1.1/DTD/svg11.dtd">
<!-- Generated by graphviz version 5.0.0 (20220707.1540)
 -->
<!-- Title: dependencies Pages: 1 -->
<svg width="488pt" height="174pt"
 viewBox="0.00 0.00 488.00 173.80" xmlns="http://www.w3.org/2000/svg" xmlns:xlink="http://www.w3.org/1999/xlink">
<g id="graph0" class="graph" transform="scale(1 1) rotate(0) translate(4 169.8)">
<title>dependencies</title>
<polygon fill="white" stroke="transparent" points="-4,4 -4,-169.8 484,-169.8 484,4 -4,4"/>
<text text-anchor="middle" x="240" y="-8.2" font-family="sans-serif" font-size="14.00">dependencies</text>
<g id="clust1" class="cluster">
<title>cluster_VoitureModule</title>
<polygon fill="none" stroke="black" stroke-dasharray="1,5" points="8,-32.8 8,-157.8 472,-157.8 472,-32.8 8,-32.8"/>
</g>
<g id="clust2" class="cluster">
<title>cluster_VoitureModule_declarations</title>
<polygon fill="none" stroke="black" points="16,-40.8 16,-92.8 464,-92.8 464,-40.8 16,-40.8"/>
</g>
<!-- AddcarComponent -->
<g id="node1" class="node">
<title>AddcarComponent</title>
<polygon fill="#ffffb3" stroke="black" points="456.03,-84.8 333.97,-84.8 333.97,-48.8 456.03,-48.8 456.03,-84.8"/>
<text text-anchor="middle" x="395" y="-62.6" font-family="Times,serif" font-size="14.00">AddcarComponent</text>
</g>
<!-- VoitureModule -->
<g id="node4" class="node">
<title>VoitureModule</title>
<polygon fill="#8dd3c7" stroke="black" points="299.32,-149.8 296.32,-153.8 275.32,-153.8 272.32,-149.8 196.68,-149.8 196.68,-113.8 299.32,-113.8 299.32,-149.8"/>
<text text-anchor="middle" x="248" y="-127.6" font-family="Times,serif" font-size="14.00">VoitureModule</text>
</g>
<!-- AddcarComponent&#45;&gt;VoitureModule -->
<g id="edge1" class="edge">
<title>AddcarComponent&#45;&gt;VoitureModule</title>
<path fill="none" stroke="black" d="M395,-84.91C395,-104.14 395,-131.8 395,-131.8 395,-131.8 309.41,-131.8 309.41,-131.8"/>
<polygon fill="black" stroke="black" points="309.41,-128.3 299.41,-131.8 309.41,-135.3 309.41,-128.3"/>
</g>
<!-- DeletecarComponent -->
<g id="node2" class="node">
<title>DeletecarComponent</title>
<polygon fill="#ffffb3" stroke="black" points="315.45,-84.8 180.55,-84.8 180.55,-48.8 315.45,-48.8 315.45,-84.8"/>
<text text-anchor="middle" x="248" y="-62.6" font-family="Times,serif" font-size="14.00">DeletecarComponent</text>
</g>
<!-- DeletecarComponent&#45;&gt;VoitureModule -->
<g id="edge2" class="edge">
<title>DeletecarComponent&#45;&gt;VoitureModule</title>
<path fill="none" stroke="black" d="M248,-84.91C248,-84.91 248,-103.79 248,-103.79"/>
<polygon fill="black" stroke="black" points="244.5,-103.79 248,-113.79 251.5,-103.79 244.5,-103.79"/>
</g>
<!-- UpdatecarComponent -->
<g id="node3" class="node">
<title>UpdatecarComponent</title>
<polygon fill="#ffffb3" stroke="black" points="162.35,-84.8 23.65,-84.8 23.65,-48.8 162.35,-48.8 162.35,-84.8"/>
<text text-anchor="middle" x="93" y="-62.6" font-family="Times,serif" font-size="14.00">UpdatecarComponent</text>
</g>
<!-- UpdatecarComponent&#45;&gt;VoitureModule -->
<g id="edge3" class="edge">
<title>UpdatecarComponent&#45;&gt;VoitureModule</title>
<path fill="none" stroke="black" d="M93,-84.91C93,-104.14 93,-131.8 93,-131.8 93,-131.8 186.82,-131.8 186.82,-131.8"/>
<polygon fill="black" stroke="black" points="186.82,-135.3 196.82,-131.8 186.82,-128.3 186.82,-135.3"/>
</g>
</g>
</svg>
