<?xml version="1.0" encoding="UTF-8" standalone="no"?>
<!DOCTYPE svg PUBLIC "-//W3C//DTD SVG 1.1//EN"
 "http://www.w3.org/Graphics/SVG/1.1/DTD/svg11.dtd">
<!-- Generated by graphviz version 5.0.0 (20220707.1540)
 -->
<!-- Title: dependencies Pages: 1 -->
<svg width="4522pt" height="247pt"
 viewBox="0.00 0.00 4522.00 246.80" xmlns="http://www.w3.org/2000/svg" xmlns:xlink="http://www.w3.org/1999/xlink">
<g id="graph0" class="graph" transform="scale(1 1) rotate(0) translate(4 242.8)">
<title>dependencies</title>
<polygon fill="white" stroke="transparent" points="-4,4 -4,-242.8 4518,-242.8 4518,4 -4,4"/>
<text text-anchor="middle" x="2257" y="-8.2" font-family="sans-serif" font-size="14.00">dependencies</text>
<g id="clust1" class="cluster">
<title>cluster_AdminModule</title>
<polygon fill="none" stroke="black" stroke-dasharray="1,5" points="8,-32.8 8,-157.8 1197,-157.8 1197,-32.8 8,-32.8"/>
</g>
<g id="clust2" class="cluster">
<title>cluster_AdminModule_declarations</title>
<polygon fill="none" stroke="black" points="184,-40.8 184,-92.8 1189,-92.8 1189,-40.8 184,-40.8"/>
</g>
<g id="clust10" class="cluster">
<title>cluster_AdminModule_imports</title>
<polygon fill="none" stroke="black" points="16,-40.8 16,-92.8 176,-92.8 176,-40.8 16,-40.8"/>
</g>
<g id="clust20" class="cluster">
<title>cluster_AppModule</title>
<polygon fill="none" stroke="black" stroke-dasharray="1,5" points="1205,-32.8 1205,-230.8 1495,-230.8 1495,-32.8 1205,-32.8"/>
</g>
<g id="clust21" class="cluster">
<title>cluster_AppModule_declarations</title>
<polygon fill="none" stroke="black" points="1365,-40.8 1365,-92.8 1487,-92.8 1487,-40.8 1365,-40.8"/>
</g>
<g id="clust23" class="cluster">
<title>cluster_AppModule_imports</title>
<polygon fill="none" stroke="black" points="1213,-40.8 1213,-92.8 1357,-92.8 1357,-40.8 1213,-40.8"/>
</g>
<g id="clust25" class="cluster">
<title>cluster_AppModule_bootstrap</title>
<polygon fill="none" stroke="black" points="1293,-170.8 1293,-222.8 1417,-222.8 1417,-170.8 1293,-170.8"/>
</g>
<g id="clust33" class="cluster">
<title>cluster_AuthModule</title>
<polygon fill="none" stroke="black" stroke-dasharray="1,5" points="1503,-32.8 1503,-157.8 2097,-157.8 2097,-32.8 1503,-32.8"/>
</g>
<g id="clust34" class="cluster">
<title>cluster_AuthModule_declarations</title>
<polygon fill="none" stroke="black" points="1667,-40.8 1667,-92.8 2089,-92.8 2089,-40.8 1667,-40.8"/>
</g>
<g id="clust38" class="cluster">
<title>cluster_AuthModule_imports</title>
<polygon fill="none" stroke="black" points="1511,-40.8 1511,-92.8 1659,-92.8 1659,-40.8 1511,-40.8"/>
</g>
<g id="clust48" class="cluster">
<title>cluster_FactureModule</title>
<polygon fill="none" stroke="black" stroke-dasharray="1,5" points="2105,-32.8 2105,-157.8 2271,-157.8 2271,-32.8 2105,-32.8"/>
</g>
<g id="clust49" class="cluster">
<title>cluster_FactureModule_declarations</title>
<polygon fill="none" stroke="black" points="2113,-40.8 2113,-92.8 2263,-92.8 2263,-40.8 2113,-40.8"/>
</g>
<g id="clust61" class="cluster">
<title>cluster_PublicModule</title>
<polygon fill="none" stroke="black" stroke-dasharray="1,5" points="2279,-32.8 2279,-157.8 4034,-157.8 4034,-32.8 2279,-32.8"/>
</g>
<g id="clust62" class="cluster">
<title>cluster_PublicModule_declarations</title>
<polygon fill="none" stroke="black" points="2451,-40.8 2451,-92.8 4026,-92.8 4026,-40.8 2451,-40.8"/>
</g>
<g id="clust74" class="cluster">
<title>cluster_PublicModule_imports</title>
<polygon fill="none" stroke="black" points="2287,-40.8 2287,-92.8 2443,-92.8 2443,-40.8 2287,-40.8"/>
</g>
<g id="clust84" class="cluster">
<title>cluster_VoitureModule</title>
<polygon fill="none" stroke="black" stroke-dasharray="1,5" points="4042,-32.8 4042,-157.8 4506,-157.8 4506,-32.8 4042,-32.8"/>
</g>
<g id="clust85" class="cluster">
<title>cluster_VoitureModule_declarations</title>
<polygon fill="none" stroke="black" points="4050,-40.8 4050,-92.8 4498,-92.8 4498,-40.8 4050,-40.8"/>
</g>
<!-- AlayoutComponent -->
<g id="node1" class="node">
<title>AlayoutComponent</title>
<polygon fill="#ffffb3" stroke="black" points="1181.44,-84.8 1054.56,-84.8 1054.56,-48.8 1181.44,-48.8 1181.44,-84.8"/>
<text text-anchor="middle" x="1118" y="-62.6" font-family="Times,serif" font-size="14.00">AlayoutComponent</text>
</g>
<!-- AdminModule -->
<g id="node8" class="node">
<title>AdminModule</title>
<polygon fill="#8dd3c7" stroke="black" points="669.44,-149.8 666.44,-153.8 645.44,-153.8 642.44,-149.8 570.56,-149.8 570.56,-113.8 669.44,-113.8 669.44,-149.8"/>
<text text-anchor="middle" x="620" y="-127.6" font-family="Times,serif" font-size="14.00">AdminModule</text>
</g>
<!-- AlayoutComponent&#45;&gt;AdminModule -->
<g id="edge1" class="edge">
<title>AlayoutComponent&#45;&gt;AdminModule</title>
<path fill="none" stroke="black" d="M1118,-85.09C1118,-107.01 1118,-140.8 1118,-140.8 1118,-140.8 679.57,-140.8 679.57,-140.8"/>
<polygon fill="black" stroke="black" points="679.57,-137.3 669.57,-140.8 679.57,-144.3 679.57,-137.3"/>
</g>
<!-- DashboardComponent -->
<g id="node2" class="node">
<title>DashboardComponent</title>
<polygon fill="#ffffb3" stroke="black" points="1036.98,-84.8 895.02,-84.8 895.02,-48.8 1036.98,-48.8 1036.98,-84.8"/>
<text text-anchor="middle" x="966" y="-62.6" font-family="Times,serif" font-size="14.00">DashboardComponent</text>
</g>
<!-- DashboardComponent&#45;&gt;AdminModule -->
<g id="edge2" class="edge">
<title>DashboardComponent&#45;&gt;AdminModule</title>
<path fill="none" stroke="black" d="M966,-84.91C966,-104.14 966,-131.8 966,-131.8 966,-131.8 679.57,-131.8 679.57,-131.8"/>
<polygon fill="black" stroke="black" points="679.57,-128.3 669.57,-131.8 679.57,-135.3 679.57,-128.3"/>
</g>
<!-- EtatComponent -->
<g id="node3" class="node">
<title>EtatComponent</title>
<polygon fill="#ffffb3" stroke="black" points="876.88,-84.8 773.12,-84.8 773.12,-48.8 876.88,-48.8 876.88,-84.8"/>
<text text-anchor="middle" x="825" y="-62.6" font-family="Times,serif" font-size="14.00">EtatComponent</text>
</g>
<!-- EtatComponent&#45;&gt;AdminModule -->
<g id="edge3" class="edge">
<title>EtatComponent&#45;&gt;AdminModule</title>
<path fill="none" stroke="black" d="M825,-84.83C825,-101.2 825,-122.8 825,-122.8 825,-122.8 679.36,-122.8 679.36,-122.8"/>
<polygon fill="black" stroke="black" points="679.36,-119.3 669.36,-122.8 679.36,-126.3 679.36,-119.3"/>
</g>
<!-- LougoutComponent -->
<g id="node4" class="node">
<title>LougoutComponent</title>
<polygon fill="#ffffb3" stroke="black" points="755.27,-84.8 626.73,-84.8 626.73,-48.8 755.27,-48.8 755.27,-84.8"/>
<text text-anchor="middle" x="691" y="-62.6" font-family="Times,serif" font-size="14.00">LougoutComponent</text>
</g>
<!-- LougoutComponent&#45;&gt;AdminModule -->
<g id="edge4" class="edge">
<title>LougoutComponent&#45;&gt;AdminModule</title>
<path fill="none" stroke="black" d="M647.92,-84.91C647.92,-84.91 647.92,-103.79 647.92,-103.79"/>
<polygon fill="black" stroke="black" points="644.42,-103.79 647.92,-113.79 651.42,-103.79 644.42,-103.79"/>
</g>
<!-- ProfileComponent -->
<g id="node5" class="node">
<title>ProfileComponent</title>
<polygon fill="#ffffb3" stroke="black" points="608.94,-84.8 489.06,-84.8 489.06,-48.8 608.94,-48.8 608.94,-84.8"/>
<text text-anchor="middle" x="549" y="-62.6" font-family="Times,serif" font-size="14.00">ProfileComponent</text>
</g>
<!-- ProfileComponent&#45;&gt;AdminModule -->
<g id="edge5" class="edge">
<title>ProfileComponent&#45;&gt;AdminModule</title>
<path fill="none" stroke="black" d="M589.75,-84.91C589.75,-84.91 589.75,-103.79 589.75,-103.79"/>
<polygon fill="black" stroke="black" points="586.25,-103.79 589.75,-113.79 593.25,-103.79 586.25,-103.79"/>
</g>
<!-- SidemenuComponent -->
<g id="node6" class="node">
<title>SidemenuComponent</title>
<polygon fill="#ffffb3" stroke="black" points="471.82,-84.8 334.18,-84.8 334.18,-48.8 471.82,-48.8 471.82,-84.8"/>
<text text-anchor="middle" x="403" y="-62.6" font-family="Times,serif" font-size="14.00">SidemenuComponent</text>
</g>
<!-- SidemenuComponent&#45;&gt;AdminModule -->
<g id="edge6" class="edge">
<title>SidemenuComponent&#45;&gt;AdminModule</title>
<path fill="none" stroke="black" d="M403,-84.83C403,-101.2 403,-122.8 403,-122.8 403,-122.8 560.76,-122.8 560.76,-122.8"/>
<polygon fill="black" stroke="black" points="560.76,-126.3 570.76,-122.8 560.76,-119.3 560.76,-126.3"/>
</g>
<!-- SignoutComponent -->
<g id="node7" class="node">
<title>SignoutComponent</title>
<polygon fill="#ffffb3" stroke="black" points="316.4,-84.8 191.6,-84.8 191.6,-48.8 316.4,-48.8 316.4,-84.8"/>
<text text-anchor="middle" x="254" y="-62.6" font-family="Times,serif" font-size="14.00">SignoutComponent</text>
</g>
<!-- SignoutComponent&#45;&gt;AdminModule -->
<g id="edge7" class="edge">
<title>SignoutComponent&#45;&gt;AdminModule</title>
<path fill="none" stroke="black" d="M254,-84.91C254,-104.14 254,-131.8 254,-131.8 254,-131.8 560.64,-131.8 560.64,-131.8"/>
<polygon fill="black" stroke="black" points="560.64,-135.3 570.64,-131.8 560.64,-128.3 560.64,-135.3"/>
</g>
<!-- AdminRoutingModule -->
<g id="node9" class="node">
<title>AdminRoutingModule</title>
<polygon fill="#8dd3c7" stroke="black" points="167.56,-84.8 164.56,-88.8 143.56,-88.8 140.56,-84.8 24.44,-84.8 24.44,-48.8 167.56,-48.8 167.56,-84.8"/>
<text text-anchor="middle" x="96" y="-62.6" font-family="Times,serif" font-size="14.00">AdminRoutingModule</text>
</g>
<!-- AdminRoutingModule&#45;&gt;AdminModule -->
<g id="edge8" class="edge">
<title>AdminRoutingModule&#45;&gt;AdminModule</title>
<path fill="none" stroke="black" d="M96,-85.09C96,-107.01 96,-140.8 96,-140.8 96,-140.8 560.7,-140.8 560.7,-140.8"/>
<polygon fill="black" stroke="black" points="560.7,-144.3 570.7,-140.8 560.7,-137.3 560.7,-144.3"/>
</g>
<!-- AppComponent -->
<g id="node10" class="node">
<title>AppComponent</title>
<polygon fill="#ffffb3" stroke="black" points="1478.94,-84.8 1373.06,-84.8 1373.06,-48.8 1478.94,-48.8 1478.94,-84.8"/>
<text text-anchor="middle" x="1426" y="-62.6" font-family="Times,serif" font-size="14.00">AppComponent</text>
</g>
<!-- AppModule -->
<g id="node11" class="node">
<title>AppModule</title>
<polygon fill="#8dd3c7" stroke="black" points="1396.66,-149.8 1393.66,-153.8 1372.66,-153.8 1369.66,-149.8 1313.34,-149.8 1313.34,-113.8 1396.66,-113.8 1396.66,-149.8"/>
<text text-anchor="middle" x="1355" y="-127.6" font-family="Times,serif" font-size="14.00">AppModule</text>
</g>
<!-- AppComponent&#45;&gt;AppModule -->
<g id="edge9" class="edge">
<title>AppComponent&#45;&gt;AppModule</title>
<path fill="none" stroke="black" d="M1385.06,-84.91C1385.06,-84.91 1385.06,-103.79 1385.06,-103.79"/>
<polygon fill="black" stroke="black" points="1381.56,-103.79 1385.06,-113.79 1388.56,-103.79 1381.56,-103.79"/>
</g>
<!-- AppComponent  -->
<g id="node13" class="node">
<title>AppComponent </title>
<polygon fill="#80b1d3" stroke="black" points="1409.44,-214.8 1300.56,-214.8 1300.56,-178.8 1409.44,-178.8 1409.44,-214.8"/>
<text text-anchor="middle" x="1355" y="-192.6" font-family="Times,serif" font-size="14.00">AppComponent </text>
</g>
<!-- AppModule&#45;&gt;AppComponent  -->
<g id="edge11" class="edge">
<title>AppModule&#45;&gt;AppComponent </title>
<path fill="none" stroke="black" stroke-dasharray="1,5" d="M1355,-149.91C1355,-149.91 1355,-168.79 1355,-168.79"/>
<polygon fill="black" stroke="black" points="1351.5,-168.79 1355,-178.79 1358.5,-168.79 1351.5,-168.79"/>
</g>
<!-- AppRoutingModule -->
<g id="node12" class="node">
<title>AppRoutingModule</title>
<polygon fill="#8dd3c7" stroke="black" points="1349.28,-84.8 1346.28,-88.8 1325.28,-88.8 1322.28,-84.8 1220.72,-84.8 1220.72,-48.8 1349.28,-48.8 1349.28,-84.8"/>
<text text-anchor="middle" x="1285" y="-62.6" font-family="Times,serif" font-size="14.00">AppRoutingModule</text>
</g>
<!-- AppRoutingModule&#45;&gt;AppModule -->
<g id="edge10" class="edge">
<title>AppRoutingModule&#45;&gt;AppModule</title>
<path fill="none" stroke="black" d="M1331.28,-84.91C1331.28,-84.91 1331.28,-103.79 1331.28,-103.79"/>
<polygon fill="black" stroke="black" points="1327.78,-103.79 1331.28,-113.79 1334.78,-103.79 1327.78,-103.79"/>
</g>
<!-- AulayoutComponent -->
<g id="node14" class="node">
<title>AulayoutComponent</title>
<polygon fill="#ffffb3" stroke="black" points="2080.94,-84.8 1947.06,-84.8 1947.06,-48.8 2080.94,-48.8 2080.94,-84.8"/>
<text text-anchor="middle" x="2014" y="-62.6" font-family="Times,serif" font-size="14.00">AulayoutComponent</text>
</g>
<!-- AuthModule -->
<g id="node17" class="node">
<title>AuthModule</title>
<polygon fill="#8dd3c7" stroke="black" points="1847.55,-149.8 1844.55,-153.8 1823.55,-153.8 1820.55,-149.8 1760.45,-149.8 1760.45,-113.8 1847.55,-113.8 1847.55,-149.8"/>
<text text-anchor="middle" x="1804" y="-127.6" font-family="Times,serif" font-size="14.00">AuthModule</text>
</g>
<!-- AulayoutComponent&#45;&gt;AuthModule -->
<g id="edge12" class="edge">
<title>AulayoutComponent&#45;&gt;AuthModule</title>
<path fill="none" stroke="black" d="M2014,-84.91C2014,-104.14 2014,-131.8 2014,-131.8 2014,-131.8 1857.77,-131.8 1857.77,-131.8"/>
<polygon fill="black" stroke="black" points="1857.77,-128.3 1847.77,-131.8 1857.77,-135.3 1857.77,-128.3"/>
</g>
<!-- LoginComponent -->
<g id="node15" class="node">
<title>LoginComponent</title>
<polygon fill="#ffffb3" stroke="black" points="1929.27,-84.8 1814.73,-84.8 1814.73,-48.8 1929.27,-48.8 1929.27,-84.8"/>
<text text-anchor="middle" x="1872" y="-62.6" font-family="Times,serif" font-size="14.00">LoginComponent</text>
</g>
<!-- LoginComponent&#45;&gt;AuthModule -->
<g id="edge13" class="edge">
<title>LoginComponent&#45;&gt;AuthModule</title>
<path fill="none" stroke="black" d="M1831.19,-84.91C1831.19,-84.91 1831.19,-103.79 1831.19,-103.79"/>
<polygon fill="black" stroke="black" points="1827.69,-103.79 1831.19,-113.79 1834.69,-103.79 1827.69,-103.79"/>
</g>
<!-- SignupComponent -->
<g id="node16" class="node">
<title>SignupComponent</title>
<polygon fill="#ffffb3" stroke="black" points="1796.51,-84.8 1675.49,-84.8 1675.49,-48.8 1796.51,-48.8 1796.51,-84.8"/>
<text text-anchor="middle" x="1736" y="-62.6" font-family="Times,serif" font-size="14.00">SignupComponent</text>
</g>
<!-- SignupComponent&#45;&gt;AuthModule -->
<g id="edge14" class="edge">
<title>SignupComponent&#45;&gt;AuthModule</title>
<path fill="none" stroke="black" d="M1778.36,-84.91C1778.36,-84.91 1778.36,-103.79 1778.36,-103.79"/>
<polygon fill="black" stroke="black" points="1774.86,-103.79 1778.36,-113.79 1781.86,-103.79 1774.86,-103.79"/>
</g>
<!-- AuthRoutingModule -->
<g id="node18" class="node">
<title>AuthRoutingModule</title>
<polygon fill="#8dd3c7" stroke="black" points="1651.17,-84.8 1648.17,-88.8 1627.17,-88.8 1624.17,-84.8 1518.83,-84.8 1518.83,-48.8 1651.17,-48.8 1651.17,-84.8"/>
<text text-anchor="middle" x="1585" y="-62.6" font-family="Times,serif" font-size="14.00">AuthRoutingModule</text>
</g>
<!-- AuthRoutingModule&#45;&gt;AuthModule -->
<g id="edge15" class="edge">
<title>AuthRoutingModule&#45;&gt;AuthModule</title>
<path fill="none" stroke="black" d="M1585,-84.91C1585,-104.14 1585,-131.8 1585,-131.8 1585,-131.8 1750.21,-131.8 1750.21,-131.8"/>
<polygon fill="black" stroke="black" points="1750.21,-135.3 1760.21,-131.8 1750.21,-128.3 1750.21,-135.3"/>
</g>
<!-- PaiementComponent -->
<g id="node19" class="node">
<title>PaiementComponent</title>
<polygon fill="#ffffb3" stroke="black" points="2254.93,-84.8 2121.07,-84.8 2121.07,-48.8 2254.93,-48.8 2254.93,-84.8"/>
<text text-anchor="middle" x="2188" y="-62.6" font-family="Times,serif" font-size="14.00">PaiementComponent</text>
</g>
<!-- FactureModule -->
<g id="node20" class="node">
<title>FactureModule</title>
<polygon fill="#8dd3c7" stroke="black" points="2238.53,-149.8 2235.53,-153.8 2214.53,-153.8 2211.53,-149.8 2137.47,-149.8 2137.47,-113.8 2238.53,-113.8 2238.53,-149.8"/>
<text text-anchor="middle" x="2188" y="-127.6" font-family="Times,serif" font-size="14.00">FactureModule</text>
</g>
<!-- PaiementComponent&#45;&gt;FactureModule -->
<g id="edge16" class="edge">
<title>PaiementComponent&#45;&gt;FactureModule</title>
<path fill="none" stroke="black" d="M2188,-84.91C2188,-84.91 2188,-103.79 2188,-103.79"/>
<polygon fill="black" stroke="black" points="2184.5,-103.79 2188,-113.79 2191.5,-103.79 2184.5,-103.79"/>
</g>
<!-- AboutUsComponent -->
<g id="node21" class="node">
<title>AboutUsComponent</title>
<polygon fill="#ffffb3" stroke="black" points="4017.89,-84.8 3886.11,-84.8 3886.11,-48.8 4017.89,-48.8 4017.89,-84.8"/>
<text text-anchor="middle" x="3952" y="-62.6" font-family="Times,serif" font-size="14.00">AboutUsComponent</text>
</g>
<!-- PublicModule -->
<g id="node32" class="node">
<title>PublicModule</title>
<polygon fill="#8dd3c7" stroke="black" points="3225.83,-149.8 3222.83,-153.8 3201.83,-153.8 3198.83,-149.8 3130.17,-149.8 3130.17,-113.8 3225.83,-113.8 3225.83,-149.8"/>
<text text-anchor="middle" x="3178" y="-127.6" font-family="Times,serif" font-size="14.00">PublicModule</text>
</g>
<!-- AboutUsComponent&#45;&gt;PublicModule -->
<g id="edge17" class="edge">
<title>AboutUsComponent&#45;&gt;PublicModule</title>
<path fill="none" stroke="black" d="M3952,-84.84C3952,-106.46 3952,-139.8 3952,-139.8 3952,-139.8 3235.83,-139.8 3235.83,-139.8"/>
<polygon fill="black" stroke="black" points="3235.83,-136.3 3225.83,-139.8 3235.83,-143.3 3235.83,-136.3"/>
</g>
<!-- ContactComponent -->
<g id="node22" class="node">
<title>ContactComponent</title>
<polygon fill="#ffffb3" stroke="black" points="3868.38,-84.8 3743.62,-84.8 3743.62,-48.8 3868.38,-48.8 3868.38,-84.8"/>
<text text-anchor="middle" x="3806" y="-62.6" font-family="Times,serif" font-size="14.00">ContactComponent</text>
</g>
<!-- ContactComponent&#45;&gt;PublicModule -->
<g id="edge18" class="edge">
<title>ContactComponent&#45;&gt;PublicModule</title>
<path fill="none" stroke="black" d="M3806,-85.02C3806,-105.17 3806,-134.8 3806,-134.8 3806,-134.8 3235.72,-134.8 3235.72,-134.8"/>
<polygon fill="black" stroke="black" points="3235.72,-131.3 3225.72,-134.8 3235.72,-138.3 3235.72,-131.3"/>
</g>
<!-- EquipeComponent -->
<g id="node23" class="node">
<title>EquipeComponent</title>
<polygon fill="#ffffb3" stroke="black" points="3725.49,-84.8 3604.51,-84.8 3604.51,-48.8 3725.49,-48.8 3725.49,-84.8"/>
<text text-anchor="middle" x="3665" y="-62.6" font-family="Times,serif" font-size="14.00">EquipeComponent</text>
</g>
<!-- EquipeComponent&#45;&gt;PublicModule -->
<g id="edge19" class="edge">
<title>EquipeComponent&#45;&gt;PublicModule</title>
<path fill="none" stroke="black" d="M3665,-85.02C3665,-103.63 3665,-129.8 3665,-129.8 3665,-129.8 3236.03,-129.8 3236.03,-129.8"/>
<polygon fill="black" stroke="black" points="3236.03,-126.3 3226.03,-129.8 3236.03,-133.3 3236.03,-126.3"/>
</g>
<!-- HomeComponent -->
<g id="node24" class="node">
<title>HomeComponent</title>
<polygon fill="#ffffb3" stroke="black" points="3586.55,-84.8 3471.45,-84.8 3471.45,-48.8 3586.55,-48.8 3586.55,-84.8"/>
<text text-anchor="middle" x="3529" y="-62.6" font-family="Times,serif" font-size="14.00">HomeComponent</text>
</g>
<!-- HomeComponent&#45;&gt;PublicModule -->
<g id="edge20" class="edge">
<title>HomeComponent&#45;&gt;PublicModule</title>
<path fill="none" stroke="black" d="M3529,-84.83C3529,-101.86 3529,-124.8 3529,-124.8 3529,-124.8 3235.7,-124.8 3235.7,-124.8"/>
<polygon fill="black" stroke="black" points="3235.7,-121.3 3225.7,-124.8 3235.7,-128.3 3235.7,-121.3"/>
</g>
<!-- PfooterComponent -->
<g id="node25" class="node">
<title>PfooterComponent</title>
<polygon fill="#ffffb3" stroke="black" points="3453.05,-84.8 3330.95,-84.8 3330.95,-48.8 3453.05,-48.8 3453.05,-84.8"/>
<text text-anchor="middle" x="3392" y="-62.6" font-family="Times,serif" font-size="14.00">PfooterComponent</text>
</g>
<!-- PfooterComponent&#45;&gt;PublicModule -->
<g id="edge21" class="edge">
<title>PfooterComponent&#45;&gt;PublicModule</title>
<path fill="none" stroke="black" d="M3392,-85.04C3392,-100.37 3392,-119.8 3392,-119.8 3392,-119.8 3235.76,-119.8 3235.76,-119.8"/>
<polygon fill="black" stroke="black" points="3235.76,-116.3 3225.76,-119.8 3235.76,-123.3 3235.76,-116.3"/>
</g>
<!-- PheaderComponent -->
<g id="node26" class="node">
<title>PheaderComponent</title>
<polygon fill="#ffffb3" stroke="black" points="3313.42,-84.8 3186.58,-84.8 3186.58,-48.8 3313.42,-48.8 3313.42,-84.8"/>
<text text-anchor="middle" x="3250" y="-62.6" font-family="Times,serif" font-size="14.00">PheaderComponent</text>
</g>
<!-- PheaderComponent&#45;&gt;PublicModule -->
<g id="edge22" class="edge">
<title>PheaderComponent&#45;&gt;PublicModule</title>
<path fill="none" stroke="black" d="M3206.23,-84.91C3206.23,-84.91 3206.23,-103.79 3206.23,-103.79"/>
<polygon fill="black" stroke="black" points="3202.73,-103.79 3206.23,-113.79 3209.73,-103.79 3202.73,-103.79"/>
</g>
<!-- PlayoutComponent -->
<g id="node27" class="node">
<title>PlayoutComponent</title>
<polygon fill="#ffffb3" stroke="black" points="3169.11,-84.8 3044.89,-84.8 3044.89,-48.8 3169.11,-48.8 3169.11,-84.8"/>
<text text-anchor="middle" x="3107" y="-62.6" font-family="Times,serif" font-size="14.00">PlayoutComponent</text>
</g>
<!-- PlayoutComponent&#45;&gt;PublicModule -->
<g id="edge23" class="edge">
<title>PlayoutComponent&#45;&gt;PublicModule</title>
<path fill="none" stroke="black" d="M3149.69,-84.91C3149.69,-84.91 3149.69,-103.79 3149.69,-103.79"/>
<polygon fill="black" stroke="black" points="3146.19,-103.79 3149.69,-113.79 3153.19,-103.79 3146.19,-103.79"/>
</g>
<!-- PrivacyComponent -->
<g id="node28" class="node">
<title>PrivacyComponent</title>
<polygon fill="#ffffb3" stroke="black" points="3027.1,-84.8 2902.9,-84.8 2902.9,-48.8 3027.1,-48.8 3027.1,-84.8"/>
<text text-anchor="middle" x="2965" y="-62.6" font-family="Times,serif" font-size="14.00">PrivacyComponent</text>
</g>
<!-- PrivacyComponent&#45;&gt;PublicModule -->
<g id="edge24" class="edge">
<title>PrivacyComponent&#45;&gt;PublicModule</title>
<path fill="none" stroke="black" d="M2965,-85.04C2965,-100.37 2965,-119.8 2965,-119.8 2965,-119.8 3120.2,-119.8 3120.2,-119.8"/>
<polygon fill="black" stroke="black" points="3120.2,-123.3 3130.2,-119.8 3120.2,-116.3 3120.2,-123.3"/>
</g>
<!-- ReservationComponent -->
<g id="node29" class="node">
<title>ReservationComponent</title>
<polygon fill="#ffffb3" stroke="black" points="2885.2,-84.8 2736.8,-84.8 2736.8,-48.8 2885.2,-48.8 2885.2,-84.8"/>
<text text-anchor="middle" x="2811" y="-62.6" font-family="Times,serif" font-size="14.00">ReservationComponent</text>
</g>
<!-- ReservationComponent&#45;&gt;PublicModule -->
<g id="edge25" class="edge">
<title>ReservationComponent&#45;&gt;PublicModule</title>
<path fill="none" stroke="black" d="M2811,-84.82C2811,-102.17 2811,-125.8 2811,-125.8 2811,-125.8 3120.02,-125.8 3120.02,-125.8"/>
<polygon fill="black" stroke="black" points="3120.02,-129.3 3130.02,-125.8 3120.02,-122.3 3120.02,-129.3"/>
</g>
<!-- ServiceComponent -->
<g id="node30" class="node">
<title>ServiceComponent</title>
<polygon fill="#ffffb3" stroke="black" points="2718.81,-84.8 2595.19,-84.8 2595.19,-48.8 2718.81,-48.8 2718.81,-84.8"/>
<text text-anchor="middle" x="2657" y="-62.6" font-family="Times,serif" font-size="14.00">ServiceComponent</text>
</g>
<!-- ServiceComponent&#45;&gt;PublicModule -->
<g id="edge26" class="edge">
<title>ServiceComponent&#45;&gt;PublicModule</title>
<path fill="none" stroke="black" d="M2657,-84.91C2657,-104.14 2657,-131.8 2657,-131.8 2657,-131.8 3119.92,-131.8 3119.92,-131.8"/>
<polygon fill="black" stroke="black" points="3119.92,-135.3 3129.92,-131.8 3119.92,-128.3 3119.92,-135.3"/>
</g>
<!-- TermeComponent -->
<g id="node31" class="node">
<title>TermeComponent</title>
<polygon fill="#ffffb3" stroke="black" points="2576.86,-84.8 2459.14,-84.8 2459.14,-48.8 2576.86,-48.8 2576.86,-84.8"/>
<text text-anchor="middle" x="2518" y="-62.6" font-family="Times,serif" font-size="14.00">TermeComponent</text>
</g>
<!-- TermeComponent&#45;&gt;PublicModule -->
<g id="edge27" class="edge">
<title>TermeComponent&#45;&gt;PublicModule</title>
<path fill="none" stroke="black" d="M2518,-85.08C2518,-106.12 2518,-137.8 2518,-137.8 2518,-137.8 3120.27,-137.8 3120.27,-137.8"/>
<polygon fill="black" stroke="black" points="3120.27,-141.3 3130.27,-137.8 3120.27,-134.3 3120.27,-141.3"/>
</g>
<!-- PublicRoutingModule -->
<g id="node33" class="node">
<title>PublicRoutingModule</title>
<polygon fill="#8dd3c7" stroke="black" points="2435.45,-84.8 2432.45,-88.8 2411.45,-88.8 2408.45,-84.8 2294.55,-84.8 2294.55,-48.8 2435.45,-48.8 2435.45,-84.8"/>
<text text-anchor="middle" x="2365" y="-62.6" font-family="Times,serif" font-size="14.00">PublicRoutingModule</text>
</g>
<!-- PublicRoutingModule&#45;&gt;PublicModule -->
<g id="edge28" class="edge">
<title>PublicRoutingModule&#45;&gt;PublicModule</title>
<path fill="none" stroke="black" d="M2365,-85.05C2365,-107.82 2365,-143.8 2365,-143.8 2365,-143.8 3120.18,-143.8 3120.18,-143.8"/>
<polygon fill="black" stroke="black" points="3120.18,-147.3 3130.18,-143.8 3120.18,-140.3 3120.18,-147.3"/>
</g>
<!-- AddcarComponent -->
<g id="node34" class="node">
<title>AddcarComponent</title>
<polygon fill="#ffffb3" stroke="black" points="4490.03,-84.8 4367.97,-84.8 4367.97,-48.8 4490.03,-48.8 4490.03,-84.8"/>
<text text-anchor="middle" x="4429" y="-62.6" font-family="Times,serif" font-size="14.00">AddcarComponent</text>
</g>
<!-- VoitureModule -->
<g id="node37" class="node">
<title>VoitureModule</title>
<polygon fill="#8dd3c7" stroke="black" points="4333.32,-149.8 4330.32,-153.8 4309.32,-153.8 4306.32,-149.8 4230.68,-149.8 4230.68,-113.8 4333.32,-113.8 4333.32,-149.8"/>
<text text-anchor="middle" x="4282" y="-127.6" font-family="Times,serif" font-size="14.00">VoitureModule</text>
</g>
<!-- AddcarComponent&#45;&gt;VoitureModule -->
<g id="edge29" class="edge">
<title>AddcarComponent&#45;&gt;VoitureModule</title>
<path fill="none" stroke="black" d="M4429,-84.91C4429,-104.14 4429,-131.8 4429,-131.8 4429,-131.8 4343.41,-131.8 4343.41,-131.8"/>
<polygon fill="black" stroke="black" points="4343.41,-128.3 4333.41,-131.8 4343.41,-135.3 4343.41,-128.3"/>
</g>
<!-- DeletecarComponent -->
<g id="node35" class="node">
<title>DeletecarComponent</title>
<polygon fill="#ffffb3" stroke="black" points="4349.45,-84.8 4214.55,-84.8 4214.55,-48.8 4349.45,-48.8 4349.45,-84.8"/>
<text text-anchor="middle" x="4282" y="-62.6" font-family="Times,serif" font-size="14.00">DeletecarComponent</text>
</g>
<!-- DeletecarComponent&#45;&gt;VoitureModule -->
<g id="edge30" class="edge">
<title>DeletecarComponent&#45;&gt;VoitureModule</title>
<path fill="none" stroke="black" d="M4282,-84.91C4282,-84.91 4282,-103.79 4282,-103.79"/>
<polygon fill="black" stroke="black" points="4278.5,-103.79 4282,-113.79 4285.5,-103.79 4278.5,-103.79"/>
</g>
<!-- UpdatecarComponent -->
<g id="node36" class="node">
<title>UpdatecarComponent</title>
<polygon fill="#ffffb3" stroke="black" points="4196.35,-84.8 4057.65,-84.8 4057.65,-48.8 4196.35,-48.8 4196.35,-84.8"/>
<text text-anchor="middle" x="4127" y="-62.6" font-family="Times,serif" font-size="14.00">UpdatecarComponent</text>
</g>
<!-- UpdatecarComponent&#45;&gt;VoitureModule -->
<g id="edge31" class="edge">
<title>UpdatecarComponent&#45;&gt;VoitureModule</title>
<path fill="none" stroke="black" d="M4127,-84.89C4127,-107.93 4127,-144.8 4127,-144.8 4127,-144.8 4220.82,-144.8 4220.82,-144.8"/>
<polygon fill="black" stroke="black" points="4220.82,-148.3 4230.82,-144.8 4220.82,-141.3 4220.82,-148.3"/>
</g>
</g>
</svg>
